<mxfile host="app.diagrams.net" agent="Mozilla/5.0 (Windows NT 10.0; Win64; x64) AppleWebKit/537.36 (KHTML, like Gecko) Chrome/130.0.0.0 Safari/537.36" version="24.8.4">
  <diagram name="第 1 页" id="bd0HMYXnVdFjps3pgyaA">
    <mxGraphModel dx="2261" dy="746" grid="1" gridSize="7" guides="1" tooltips="1" connect="1" arrows="1" fold="1" page="1" pageScale="1" pageWidth="827" pageHeight="1169" background="#ffffff" math="0" shadow="0">
      <root>
        <mxCell id="0" />
        <mxCell id="1" parent="0" />
        <mxCell id="t5qCFri2BIjLL-AJFP3x-11" value="&lt;b style=&quot;&quot;&gt;&lt;font color=&quot;#ff3333&quot;&gt;浏览器的进程&lt;/font&gt;&lt;/b&gt;" style="swimlane;fontStyle=0;childLayout=stackLayout;horizontal=1;startSize=30;horizontalStack=0;resizeParent=1;resizeParentMax=0;resizeLast=0;collapsible=1;marginBottom=0;whiteSpace=wrap;html=1;" vertex="1" parent="1">
          <mxGeometry x="20" y="80" width="140" height="120" as="geometry" />
        </mxCell>
        <mxCell id="t5qCFri2BIjLL-AJFP3x-12" value="&lt;ul&gt;&lt;li&gt;浏览器进程&lt;/li&gt;&lt;/ul&gt;" style="text;strokeColor=none;fillColor=none;align=left;verticalAlign=middle;spacingLeft=4;spacingRight=4;overflow=hidden;points=[[0,0.5],[1,0.5]];portConstraint=eastwest;rotatable=0;whiteSpace=wrap;html=1;" vertex="1" parent="t5qCFri2BIjLL-AJFP3x-11">
          <mxGeometry y="30" width="140" height="30" as="geometry" />
        </mxCell>
        <mxCell id="t5qCFri2BIjLL-AJFP3x-13" value="&lt;ul&gt;&lt;li&gt;网络进程&lt;/li&gt;&lt;/ul&gt;" style="text;strokeColor=none;fillColor=none;align=left;verticalAlign=middle;spacingLeft=4;spacingRight=4;overflow=hidden;points=[[0,0.5],[1,0.5]];portConstraint=eastwest;rotatable=0;whiteSpace=wrap;html=1;" vertex="1" parent="t5qCFri2BIjLL-AJFP3x-11">
          <mxGeometry y="60" width="140" height="30" as="geometry" />
        </mxCell>
        <mxCell id="t5qCFri2BIjLL-AJFP3x-14" value="&lt;ul&gt;&lt;li&gt;&lt;b&gt;&lt;font color=&quot;#ff6f1c&quot;&gt;渲染进程&lt;/font&gt;&lt;/b&gt;&lt;/li&gt;&lt;/ul&gt;" style="text;strokeColor=none;fillColor=none;align=left;verticalAlign=middle;spacingLeft=4;spacingRight=4;overflow=hidden;points=[[0,0.5],[1,0.5]];portConstraint=eastwest;rotatable=0;whiteSpace=wrap;html=1;" vertex="1" parent="t5qCFri2BIjLL-AJFP3x-11">
          <mxGeometry y="90" width="140" height="30" as="geometry" />
        </mxCell>
        <mxCell id="t5qCFri2BIjLL-AJFP3x-20" value="" style="endArrow=classic;html=1;rounded=0;" edge="1" parent="1">
          <mxGeometry relative="1" as="geometry">
            <mxPoint x="170" y="190" as="sourcePoint" />
            <mxPoint x="450" y="190" as="targetPoint" />
          </mxGeometry>
        </mxCell>
        <mxCell id="t5qCFri2BIjLL-AJFP3x-22" value="负责执行 HTML、CSS、JS 代码," style="edgeLabel;html=1;align=center;verticalAlign=middle;resizable=0;points=[];" vertex="1" connectable="0" parent="t5qCFri2BIjLL-AJFP3x-20">
          <mxGeometry x="0.0444" y="-3" relative="1" as="geometry">
            <mxPoint x="-6" y="-3" as="offset" />
          </mxGeometry>
        </mxCell>
        <mxCell id="t5qCFri2BIjLL-AJFP3x-24" value="工作任务有:" style="swimlane;whiteSpace=wrap;html=1;startSize=23;" vertex="1" parent="1">
          <mxGeometry x="470" y="170" width="200" height="160" as="geometry" />
        </mxCell>
        <mxCell id="t5qCFri2BIjLL-AJFP3x-25" value="&lt;ul&gt;&lt;li style=&quot;&quot;&gt;布局&lt;/li&gt;&lt;li&gt;处理图层&lt;/li&gt;&lt;li&gt;每秒把页面画 60 次&lt;/li&gt;&lt;li&gt;执行全局 JS 代码&lt;/li&gt;&lt;li&gt;执行事件处理函数&lt;/li&gt;&lt;li&gt;执行计时器的回调函数&lt;/li&gt;&lt;li&gt;等....&lt;/li&gt;&lt;/ul&gt;" style="text;html=1;align=left;verticalAlign=middle;resizable=0;points=[];autosize=1;strokeColor=none;fillColor=none;" vertex="1" parent="t5qCFri2BIjLL-AJFP3x-24">
          <mxGeometry x="10" y="20" width="180" height="140" as="geometry" />
        </mxCell>
        <mxCell id="t5qCFri2BIjLL-AJFP3x-26" value="&lt;font style=&quot;font-size: 14px;&quot;&gt;&lt;b style=&quot;background-color: initial;&quot;&gt;问 : 浏览器有哪些进程和线程?&lt;/b&gt;&lt;br&gt;&lt;span style=&quot;background-color: initial;&quot;&gt;答 : 浏览器是一个多进程多线程的应用程序&lt;/span&gt;&lt;/font&gt;&lt;div&gt;&lt;span style=&quot;font-size: 14px;&quot;&gt;&lt;br&gt;&lt;/span&gt;&lt;div style=&quot;font-size: 14px;&quot;&gt;&lt;font style=&quot;font-size: 14px;&quot;&gt;&lt;b style=&quot;background-color: initial;&quot;&gt;&amp;nbsp; &amp;nbsp; &amp;nbsp; &amp;nbsp; &amp;nbsp;结论&lt;/b&gt;&lt;span style=&quot;background-color: initial;&quot;&gt; : 浏览器内部工作极其复杂,&lt;/span&gt;&lt;/font&gt;&lt;/div&gt;&lt;div style=&quot;font-size: 14px;&quot;&gt;&lt;span style=&quot;background-color: initial;&quot;&gt;&lt;font style=&quot;font-size: 14px;&quot;&gt;&amp;nbsp; &amp;nbsp; &amp;nbsp; &amp;nbsp; &amp;nbsp;为了避免相互影响，为了减少连环崩溃的几率，&lt;b&gt;&lt;font color=&quot;#ff621f&quot;&gt;当启动浏览器后，它会自动启动多个进程&lt;/font&gt;&lt;/b&gt;。&lt;/font&gt;&lt;/span&gt;&lt;/div&gt;&lt;/div&gt;" style="text;html=1;align=left;verticalAlign=middle;resizable=0;points=[];autosize=1;strokeColor=none;fillColor=none;" vertex="1" parent="1">
          <mxGeometry x="180" y="10" width="620" height="100" as="geometry" />
        </mxCell>
        <mxCell id="t5qCFri2BIjLL-AJFP3x-29" value="&lt;b style=&quot;font-size: 14px; text-align: left; background-color: initial;&quot;&gt;问 :&amp;nbsp;&amp;nbsp;&lt;/b&gt;&lt;b&gt;为什么渲染进程不适用多个线程来处理这些事情?&lt;/b&gt;" style="text;html=1;align=center;verticalAlign=middle;resizable=0;points=[];autosize=1;strokeColor=none;fillColor=none;" vertex="1" parent="1">
          <mxGeometry x="20" y="330" width="310" height="30" as="geometry" />
        </mxCell>
        <mxCell id="t5qCFri2BIjLL-AJFP3x-30" value="&lt;blockquote style=&quot;margin: 0 0 0 40px; border: none; padding: 0px;&quot;&gt;&lt;blockquote style=&quot;margin: 0 0 0 40px; border: none; padding: 0px;&quot;&gt;&amp;nbsp; &amp;nbsp; &amp;nbsp; &amp;nbsp;答 :因为&lt;b&gt;js是一门单线程语言&lt;/b&gt;,其在运行中在浏览器的渲染主线程执行,一旦使用同步方式,可能导致主线程阻塞&lt;/blockquote&gt;&lt;/blockquote&gt;" style="text;html=1;align=center;verticalAlign=middle;resizable=0;points=[];autosize=1;strokeColor=none;fillColor=none;" vertex="1" parent="1">
          <mxGeometry x="-80" y="370" width="690" height="30" as="geometry" />
        </mxCell>
        <mxCell id="t5qCFri2BIjLL-AJFP3x-31" value="&lt;b&gt;&lt;font style=&quot;font-size: 15px;&quot;&gt;调度任务流程&lt;/font&gt;&lt;/b&gt;" style="text;html=1;align=center;verticalAlign=middle;resizable=0;points=[];autosize=1;strokeColor=none;fillColor=none;" vertex="1" parent="1">
          <mxGeometry x="315" y="440" width="110" height="30" as="geometry" />
        </mxCell>
        <mxCell id="t5qCFri2BIjLL-AJFP3x-32" value="&lt;font style=&quot;font-size: 15px;&quot;&gt;渲染主线程&lt;/font&gt;" style="rounded=1;whiteSpace=wrap;html=1;fillColor=#dae8fc;strokeColor=#000000;" vertex="1" parent="1">
          <mxGeometry x="40" y="483" width="120" height="60" as="geometry" />
        </mxCell>
        <mxCell id="t5qCFri2BIjLL-AJFP3x-33" value="" style="rounded=1;whiteSpace=wrap;html=1;" vertex="1" parent="1">
          <mxGeometry x="195" y="483" width="512" height="60" as="geometry" />
        </mxCell>
        <mxCell id="t5qCFri2BIjLL-AJFP3x-34" value="绘制" style="rounded=1;whiteSpace=wrap;html=1;" vertex="1" parent="1">
          <mxGeometry x="224" y="495.5" width="84" height="35" as="geometry" />
        </mxCell>
        <mxCell id="t5qCFri2BIjLL-AJFP3x-35" value="&lt;span style=&quot;color: rgba(0, 0, 0, 0); font-family: monospace; font-size: 0px; text-align: start;&quot;&gt;%3CmxGraphModel%3E%3Croot%3E%3CmxCell%20id%3D%220%22%2F%3E%3CmxCell%20id%3D%221%22%20parent%3D%220%22%2F%3E%3CmxCell%20id%3D%222%22%20value%3D%22%E6%B8%B2%E6%9F%93%E4%B8%BB%E7%BA%BF%E7%A8%8B%22%20style%3D%22rounded%3D1%3BwhiteSpace%3Dwrap%3Bhtml%3D1%3BfillColor%3D%23dae8fc%3BstrokeColor%3D%23000000%3B%22%20vertex%3D%221%22%20parent%3D%221%22%3E%3CmxGeometry%20x%3D%2240%22%20y%3D%22483%22%20width%3D%22120%22%20height%3D%2260%22%20as%3D%22geometry%22%2F%3E%3C%2FmxCell%3E%3CmxCell%20id%3D%223%22%20value%3D%22%22%20style%3D%22rounded%3D1%3BwhiteSpace%3Dwrap%3Bhtml%3D1%3B%22%20vertex%3D%221%22%20parent%3D%221%22%3E%3CmxGeometry%20x%3D%22195%22%20y%3D%22483%22%20width%3D%22512%22%20height%3D%2260%22%20as%3D%22geometry%22%2F%3E%3C%2FmxCell%3E%3CmxCell%20id%3D%224%22%20value%3D%22%E7%BB%98%E5%88%B6%22%20style%3D%22rounded%3D1%3BwhiteSpace%3Dwrap%3Bhtml%3D1%3B%22%20vertex%3D%221%22%20parent%3D%221%22%3E%3CmxGeometry%20x%3D%22224%22%20y%3D%22495.5%22%20width%3D%2284%22%20height%3D%2235%22%20as%3D%22geometry%22%2F%3E%3C%2FmxCell%3E%3C%2Froot%3E%3C%2FmxGraphModel%3E&lt;/span&gt;" style="text;html=1;align=center;verticalAlign=middle;resizable=0;points=[];autosize=1;strokeColor=none;fillColor=none;" vertex="1" parent="1">
          <mxGeometry x="59" y="584" width="21" height="35" as="geometry" />
        </mxCell>
        <mxCell id="t5qCFri2BIjLL-AJFP3x-37" value="" style="rounded=1;whiteSpace=wrap;html=1;" vertex="1" parent="1">
          <mxGeometry x="202" y="585" width="512" height="60" as="geometry" />
        </mxCell>
        <mxCell id="t5qCFri2BIjLL-AJFP3x-38" value="&lt;font style=&quot;font-size: 15px;&quot;&gt;消息队列&lt;/font&gt;" style="text;html=1;align=center;verticalAlign=middle;resizable=0;points=[];autosize=1;strokeColor=none;fillColor=none;" vertex="1" parent="1">
          <mxGeometry x="61.5" y="597.5" width="77" height="35" as="geometry" />
        </mxCell>
      </root>
    </mxGraphModel>
  </diagram>
</mxfile>
